<?xml version="1.0" standalone="no"?>
<!DOCTYPE svg PUBLIC "-//W3C//DTD SVG 20010904//EN"
 "http://www.w3.org/TR/2001/REC-SVG-20010904/DTD/svg10.dtd">
<svg version="1.0" xmlns="http://www.w3.org/2000/svg"
 width="512.000000pt" height="512.000000pt" viewBox="0 0 512.000000 512.000000"
 preserveAspectRatio="xMidYMid meet">

<g transform="translate(0.000000,512.000000) scale(0.100000,-0.100000)"
fill="#000000" stroke="none">
<path d="M1886 4836 c-582 -110 -651 -126 -668 -146 -15 -19 -18 -41 -18 -156
l0 -134 -520 0 -520 0 0 -1680 0 -1680 720 0 720 0 0 -88 0 -87 -597 -119
c-329 -66 -622 -128 -652 -139 -30 -11 -75 -38 -99 -61 -65 -59 -84 -110 -90
-233 -4 -99 -4 -102 21 -127 14 -14 35 -26 47 -26 11 0 344 54 740 120 l719
120 871 0 871 0 719 -120 c396 -66 729 -120 740 -120 12 0 33 12 47 26 25 25
25 28 21 127 -7 159 -59 241 -181 291 -33 13 -309 73 -657 142 l-600 119 0 88
0 87 720 0 720 0 0 1680 0 1680 -520 0 -520 0 0 135 c0 128 -1 137 -22 158
-20 20 -107 38 -678 145 -360 67 -662 122 -670 121 -8 0 -307 -56 -664 -123z
m1098 -116 c237 -45 440 -84 451 -87 12 -4 -155 -50 -427 -118 l-448 -113
-447 113 c-247 62 -446 114 -443 115 3 1 201 39 440 84 239 46 437 84 439 85
3 0 198 -35 435 -79z m-504 -1172 c0 -564 -3 -709 -12 -706 -7 3 -259 97 -560
209 l-548 204 0 641 0 642 560 -140 560 -140 0 -710z m1280 349 l0 -642 -553
-208 c-305 -114 -557 -207 -560 -207 -4 0 -7 319 -7 709 l0 709 558 140 c306
77 558 141 560 141 1 1 2 -288 2 -642z m-2560 263 l0 -80 -360 0 -360 0 0
-1360 0 -1360 2080 0 2080 0 0 1360 0 1360 -360 0 -360 0 0 80 0 80 440 0 440
0 0 -1520 0 -1520 -2240 0 -2240 0 0 1520 0 1520 440 0 440 0 0 -80z m0 -614
c0 -341 2 -376 18 -394 11 -14 243 -106 673 -267 361 -135 662 -245 671 -245
8 0 309 110 669 245 439 165 660 252 672 266 15 19 17 54 17 395 l0 374 280 0
280 0 0 -1200 0 -1200 -1920 0 -1920 0 0 1200 0 1200 280 0 280 0 0 -374z
m2160 -2586 l0 -80 -800 0 -800 0 0 80 0 80 800 0 800 0 0 -80z m700 -365
c428 -86 639 -132 670 -147 34 -18 48 -32 59 -61 8 -20 11 -40 8 -44 -4 -3
-312 44 -684 106 l-678 112 -880 -1 -880 0 -673 -111 c-369 -62 -675 -109
-678 -106 -4 4 -1 24 7 44 11 29 25 43 59 60 31 16 242 62 665 147 l620 124
880 1 880 1 625 -125z"/>
<path d="M882 3373 l3 -387 295 -127 c162 -70 299 -127 303 -126 9 3 70 138
65 142 -2 2 -117 51 -255 111 l-253 107 0 334 0 333 -80 0 -80 0 2 -387z"/>
<path d="M4080 3267 l0 -173 -172 -69 c-95 -37 -174 -69 -175 -70 -4 -3 48
-129 56 -138 5 -4 108 32 229 80 l222 88 0 228 0 227 -80 0 -80 0 0 -173z"/>
<path d="M3318 2710 c-97 -49 -182 -98 -188 -109 -13 -26 -13 -376 0 -402 12
-22 359 -199 390 -199 31 0 378 177 390 199 13 26 13 376 0 402 -13 23 -360
199 -392 198 -13 0 -103 -40 -200 -89z m267 -112 c36 -18 65 -35 65 -38 0 -3
-29 -20 -65 -38 l-65 -32 -65 32 c-36 18 -65 35 -65 38 0 4 112 66 127 69 2 1
32 -13 68 -31z m-145 -318 l0 -70 -80 40 -80 40 0 70 0 70 80 -40 80 -40 0
-70z m320 80 l0 -70 -80 -40 -80 -40 0 70 0 70 78 39 c42 22 78 40 80 41 1 0
2 -31 2 -70z"/>
<path d="M1525 2554 c-116 -47 -218 -94 -227 -106 -16 -18 -18 -47 -18 -288 0
-241 2 -270 18 -288 17 -20 431 -192 462 -192 31 0 445 172 463 192 15 18 17
47 17 288 0 241 -2 270 -17 288 -20 23 -435 193 -468 191 -11 0 -114 -39 -230
-85z m324 -116 c45 -17 81 -34 81 -38 0 -4 -38 -22 -85 -40 l-85 -33 -85 33
c-47 18 -85 36 -85 40 0 7 147 68 167 69 6 1 48 -13 92 -31z m-276 -209 l107
-42 0 -155 c0 -119 -3 -153 -12 -149 -7 3 -61 24 -120 48 l-108 42 0 155 c0
119 3 153 13 149 6 -3 60 -24 120 -48z m507 -102 l0 -154 -107 -42 c-60 -24
-114 -45 -120 -48 -10 -4 -13 30 -13 149 l0 154 113 46 c61 25 115 47 120 47
4 1 7 -68 7 -152z"/>
<path d="M2480 2320 l0 -80 80 0 80 0 0 80 0 80 -80 0 -80 0 0 -80z"/>
<path d="M4160 2080 l0 -240 -160 0 -160 0 0 -80 0 -80 240 0 240 0 0 320 0
320 -80 0 -80 0 0 -240z"/>
<path d="M2720 2000 l0 -80 80 0 80 0 0 80 0 80 -80 0 -80 0 0 -80z"/>
<path d="M960 1840 l0 -80 80 0 80 0 0 80 0 80 -80 0 -80 0 0 -80z"/>
</g>
</svg>
