<?xml version="1.0" standalone="no"?>
<!DOCTYPE svg PUBLIC "-//W3C//DTD SVG 20010904//EN"
 "http://www.w3.org/TR/2001/REC-SVG-20010904/DTD/svg10.dtd">
<svg version="1.0" xmlns="http://www.w3.org/2000/svg"
 width="512.000000pt" height="512.000000pt" viewBox="0 0 512.000000 512.000000"
 preserveAspectRatio="xMidYMid meet">

<g transform="translate(0.000000,512.000000) scale(0.100000,-0.100000)"
fill="#000000" stroke="none">
<path d="M30 4250 l0 -870 1225 0 1225 0 0 870 0 870 -1225 0 -1225 0 0 -870z
m2300 0 l0 -720 -1075 0 -1075 0 0 720 0 720 1075 0 1075 0 0 -720z"/>
<path d="M270 4250 l0 -630 985 0 985 0 0 630 0 630 -985 0 -985 0 0 -630z
m1820 0 l0 -480 -835 0 -835 0 0 480 0 480 835 0 835 0 0 -480z"/>
<path d="M1200 4345 l-275 -275 53 -52 52 -53 277 277 278 278 -50 50 c-27 27
-52 50 -55 50 -3 0 -129 -124 -280 -275z"/>
<path d="M1005 4460 l-80 -80 53 -52 52 -53 80 80 80 80 -53 53 -53 52 -79
-80z"/>
<path d="M1397 4142 l-77 -78 53 -52 53 -52 79 80 79 80 -49 50 c-27 27 -52
50 -55 50 -3 0 -40 -35 -83 -78z"/>
<path d="M3130 4785 c-191 -48 -351 -183 -429 -360 -93 -211 -56 -478 92 -652
201 -237 524 -296 797 -145 123 67 239 209 285 346 108 327 -77 692 -405 798
-84 27 -261 34 -340 13z m145 -245 l75 0 0 51 0 52 42 -7 c69 -11 173 -72 233
-137 56 -61 108 -157 119 -221 l7 -38 -51 0 -50 0 0 -75 0 -75 50 0 c50 0 50
0 44 -27 -13 -63 -76 -173 -128 -226 -55 -56 -167 -119 -233 -132 -33 -7 -33
-6 -33 34 l0 41 -75 0 -75 0 0 -40 c0 -39 0 -39 -32 -33 -61 11 -158 64 -217
118 -62 58 -124 161 -136 228 l-7 37 41 0 41 0 0 75 0 75 -44 0 -44 0 10 43
c34 156 158 290 316 343 l67 23 3 -55 3 -54 74 0z"/>
<path d="M3200 4330 l0 -90 -125 0 -125 0 0 -75 0 -75 200 0 200 0 0 165 0
165 -75 0 -75 0 0 -90z"/>
<path d="M4312 3223 l3 -868 118 -3 117 -3 0 -59 0 -60 75 0 75 0 0 60 0 60
120 0 120 0 0 870 0 870 -315 0 -315 0 2 -867z m478 117 l0 -600 -120 0 -120
0 0 -75 0 -75 120 0 120 0 0 -45 0 -45 -165 0 -165 0 0 720 0 720 165 0 165 0
0 -600z"/>
<path d="M2570 2825 l0 -555 708 2 707 3 0 550 0 550 -707 3 -708 2 0 -555z
m1265 0 l0 -400 -557 -3 -558 -2 0 405 0 405 558 -2 557 -3 0 -400z"/>
<path d="M2810 2825 l0 -315 470 0 470 0 0 315 0 315 -470 0 -470 0 0 -315z
m790 0 l0 -165 -320 0 -320 0 0 165 0 165 320 0 320 0 0 -165z"/>
<path d="M4550 1275 l0 -885 -200 0 -200 0 2 -192 3 -193 470 0 470 0 3 193 2
192 -200 0 -200 0 0 885 0 885 -75 0 -75 0 0 -885z m398 -1077 l-3 -43 -320 0
-320 0 -3 43 -3 42 326 0 326 0 -3 -42z"/>
<path d="M605 2101 c-72 -18 -132 -68 -159 -133 -14 -32 -16 -102 -16 -471 l0
-435 -30 -12 c-42 -17 -107 -91 -119 -136 -25 -89 3 -192 67 -246 75 -63 -46
-59 1757 -56 1821 3 1663 -3 1733 69 46 48 66 95 65 164 0 91 -50 171 -130
208 l-22 10 -3 441 c-3 437 -3 441 -26 484 -29 54 -89 98 -153 111 -57 13
-2914 14 -2964 2z m2948 -152 c14 -6 30 -22 36 -36 7 -16 11 -153 11 -428 l0
-405 -1510 0 -1510 0 0 418 c0 386 1 420 18 434 9 9 24 18 32 21 8 3 664 6
1457 6 1037 1 1449 -2 1466 -10z m151 -1033 c60 -25 68 -103 14 -140 -20 -15
-173 -16 -1634 -16 l-1611 0 -27 26 c-15 16 -26 38 -26 54 0 34 33 77 63 83
12 2 734 5 1605 6 1332 1 1588 -1 1616 -13z"/>
<path d="M820 1585 l0 -75 80 0 80 0 0 75 0 75 -80 0 -80 0 0 -75z"/>
<path d="M2010 1585 l0 -75 80 0 80 0 0 75 0 75 -80 0 -80 0 0 -75z"/>
<path d="M3190 1585 l0 -75 85 0 85 0 0 75 0 75 -85 0 -85 0 0 -75z"/>
<path d="M193 1810 c-79 -16 -143 -67 -161 -128 -4 -15 -7 -274 -7 -577 l0
-550 26 -55 c52 -111 144 -180 241 -180 l48 0 0 -160 0 -160 75 0 75 0 0 160
0 160 1630 0 1630 0 0 -160 0 -160 75 0 75 0 0 159 0 159 45 11 c61 15 108 60
147 139 l33 67 3 560 c2 375 0 572 -8 596 -23 80 -115 129 -240 129 l-50 0 0
-75 0 -75 56 0 c103 0 94 55 94 -556 0 -570 0 -574 -49 -623 l-21 -21 -1823 0
c-2036 0 -1847 -7 -1890 73 -22 42 -22 46 -25 552 -2 281 0 520 3 532 6 26 52
43 116 43 l49 0 0 75 0 75 -52 -1 c-29 -1 -72 -5 -95 -9z"/>
</g>
</svg>
