<?xml version="1.0" standalone="no"?>
<!DOCTYPE svg PUBLIC "-//W3C//DTD SVG 20010904//EN"
 "http://www.w3.org/TR/2001/REC-SVG-20010904/DTD/svg10.dtd">
<svg version="1.0" xmlns="http://www.w3.org/2000/svg"
 width="512.000000pt" height="512.000000pt" viewBox="0 0 512.000000 512.000000"
 preserveAspectRatio="xMidYMid meet">

<g transform="translate(0.000000,512.000000) scale(0.100000,-0.100000)"
fill="#000000" stroke="none">
<path d="M1270 5063 c-119 -20 -230 -80 -326 -177 l-81 -82 -53 25 c-100 45
-223 44 -327 -4 -46 -21 -92 -60 -226 -193 -92 -92 -181 -187 -197 -212 -100
-158 -72 -347 75 -499 l65 -68 -15 -36 c-29 -71 -14 -179 36 -249 30 -42 101
-85 163 -99 43 -9 63 -8 116 5 l64 17 103 -103 103 -103 0 -825 c0 -457 5
-857 10 -898 24 -182 137 -352 293 -441 93 -52 170 -73 305 -79 67 -2 122 -8
122 -11 0 -3 -14 -76 -31 -161 -25 -125 -30 -171 -26 -235 23 -346 310 -602
652 -582 181 11 348 100 452 240 55 74 68 103 168 365 l77 202 173 0 c159 0
174 2 199 21 34 27 36 77 3 107 -21 20 -35 22 -169 24 l-146 3 85 220 c46 121
91 249 99 285 30 142 11 311 -51 445 -37 80 -110 181 -163 225 l-37 30 484 0
484 0 -69 -72 c-77 -81 -130 -174 -165 -288 -18 -59 -23 -99 -24 -185 0 -137
8 -167 112 -438 45 -120 83 -220 83 -222 0 -3 -69 -5 -153 -5 -148 0 -154 -1
-175 -23 -27 -29 -28 -67 -3 -98 19 -23 25 -24 207 -29 l187 -5 87 -227 c97
-254 130 -315 211 -396 306 -304 814 -212 993 180 73 159 73 236 4 591 -42
217 -50 271 -40 285 22 31 64 116 86 172 l21 55 3 1507 c3 1633 4 1574 -51
1698 -55 123 -174 243 -296 297 -124 55 -40 53 -1826 51 -907 0 -1661 -3
-1675 -5z m3365 -158 c158 -42 278 -162 320 -320 13 -52 15 -240 15 -1525 0
-806 -3 -1482 -6 -1503 -4 -20 -9 -37 -13 -37 -3 0 -23 81 -43 180 -20 100
-48 205 -62 236 l-26 56 0 1122 c0 1229 1 1194 -60 1318 -84 169 -225 282
-406 324 -55 12 -254 14 -1436 11 -1241 -2 -1377 -4 -1419 -19 -57 -20 -147
-65 -177 -88 -22 -18 -24 -18 -65 5 -61 34 -123 40 -192 20 -103 -29 -105 15
-5 109 59 55 122 92 190 110 85 23 3298 23 3385 1z m-3864 -227 c24 -15 62
-45 84 -67 l39 -41 -299 -300 -300 -300 -43 43 c-73 71 -97 121 -97 202 0 48
6 81 19 105 22 41 306 332 353 361 68 43 169 41 244 -3z m3562 -73 c32 -8 76
-24 99 -36 58 -30 150 -119 181 -177 59 -108 57 -74 57 -1184 l0 -1018 -52 40
c-72 55 -158 96 -252 120 -77 19 -111 20 -1096 20 -979 0 -1020 -1 -1094 -20
-126 -32 -228 -91 -326 -190 -134 -133 -172 -224 -236 -563 l-18 -99 -30 6
c-17 4 -59 20 -94 36 -125 59 -221 192 -242 335 -11 76 -14 945 -4 945 4 0 25
-15 48 -33 55 -45 120 -81 181 -101 66 -21 535 -97 605 -98 137 -2 233 114
216 260 -18 154 -87 534 -106 584 -12 32 -39 84 -60 115 -53 79 -397 420 -432
428 -22 6 -33 1 -58 -23 -16 -17 -30 -41 -30 -53 0 -15 42 -65 136 -159 l135
-137 -26 -39 c-15 -21 -31 -50 -37 -63 -9 -24 -24 -10 -316 282 l-307 307 50
50 49 50 76 -75 c62 -62 81 -75 107 -75 22 0 38 8 52 26 37 47 28 69 -59 159
l-80 82 16 39 c12 29 15 57 11 110 l-5 71 51 31 c106 64 31 61 1497 61 1155 1
1344 -1 1393 -14z m-3147 -71 c41 -20 64 -59 64 -111 0 -36 -14 -52 -377 -415
-410 -411 -417 -416 -485 -384 -42 20 -68 62 -68 112 0 37 13 51 373 412 204
206 386 380 402 388 39 17 50 17 91 -2z m193 -858 l304 -304 -34 -15 c-50 -21
-96 -63 -126 -116 -15 -25 -28 -48 -30 -51 -2 -2 -141 133 -308 300 l-305 305
92 92 c51 51 95 93 98 93 3 0 142 -137 309 -304z m-7 -603 c-7 -3 -35 -20 -61
-38 l-49 -32 -293 293 -294 294 50 50 50 50 305 -306 c182 -183 300 -308 292
-311z m657 312 c11 -28 27 -99 36 -159 l17 -109 -168 -168 -169 -168 -115 20
c-113 19 -238 67 -247 95 -2 6 15 19 38 28 50 20 90 14 136 -20 39 -29 86 -31
113 -4 27 27 25 66 -5 111 -35 49 -41 97 -20 143 37 79 128 98 208 45 53 -35
96 -34 122 4 22 31 18 57 -15 106 -35 51 -39 107 -13 153 l18 29 23 -28 c12
-15 31 -51 41 -78z m-1027 -332 l67 -68 3 -575 3 -575 31 -85 c67 -190 199
-319 387 -381 74 -24 73 -21 54 -114 l-13 -60 -93 -3 c-51 -1 -118 2 -149 8
-189 35 -335 186 -362 375 -11 83 -14 1545 -2 1545 4 0 38 -30 74 -67z m1123
-204 c12 -99 -17 -123 -129 -106 l-68 10 88 88 c56 57 91 84 95 77 4 -6 10
-37 14 -69z m410 -659 c223 -85 365 -288 365 -520 0 -42 -6 -100 -14 -130 -20
-77 -392 -1044 -424 -1105 -35 -63 -114 -143 -178 -177 -289 -156 -640 22
-687 349 -11 76 -11 77 105 655 106 531 119 585 153 655 68 137 199 245 351
288 76 22 253 14 329 -15z m1799 14 c168 -43 317 -176 378 -336 32 -85 238
-1131 238 -1209 0 -251 -215 -459 -473 -459 -146 0 -301 87 -382 215 -37 57
-427 1072 -444 1153 -23 110 -5 236 51 350 61 127 210 249 349 286 72 20 207
20 283 0z"/>
<path d="M2642 4530 c-69 -16 -543 -235 -574 -265 -61 -59 -76 -152 -37 -232
18 -38 54 -67 257 -214 129 -94 250 -178 268 -185 61 -25 148 -11 196 32 9 9
22 13 29 9 6 -4 29 -45 50 -90 62 -136 126 -191 234 -202 157 -16 302 130 281
283 -23 173 -226 456 -418 587 -44 30 -48 35 -48 75 -1 129 -119 229 -238 202z
m77 -164 c10 -8 11 -25 6 -69 -7 -70 5 -94 68 -133 132 -82 252 -209 333 -351
62 -109 81 -172 64 -213 -15 -36 -63 -70 -98 -70 -51 0 -80 28 -126 121 -75
150 -159 249 -213 249 -33 0 -73 -36 -73 -65 0 -29 -28 -65 -51 -65 -17 0
-388 260 -446 313 -26 23 -30 59 -10 75 28 24 503 229 517 224 8 -3 21 -10 29
-16z"/>
<path d="M3715 3743 c-73 -38 -114 -105 -115 -184 0 -44 -2 -47 -57 -85 -80
-54 -209 -186 -265 -271 -26 -39 -69 -115 -95 -169 -44 -90 -48 -105 -47 -169
0 -83 23 -133 82 -187 56 -50 119 -72 190 -65 106 9 181 66 227 172 15 33 36
74 47 92 l19 32 41 -26 c28 -19 57 -28 98 -31 75 -6 84 0 362 202 240 174 259
195 266 286 5 65 -18 122 -66 162 -16 13 -146 77 -290 141 -229 103 -268 117
-314 117 -29 -1 -66 -8 -83 -17z m346 -242 c134 -60 248 -115 253 -123 23 -37
-4 -63 -223 -220 -121 -87 -228 -158 -240 -158 -24 0 -51 35 -51 66 0 27 -44
64 -76 64 -49 0 -141 -111 -213 -258 -22 -44 -50 -87 -63 -96 -31 -22 -90 -20
-120 4 -40 31 -53 73 -38 123 47 159 204 357 371 470 43 28 82 62 88 75 7 14
8 45 5 77 -8 61 4 85 41 85 13 0 132 -49 266 -109z"/>
<path d="M2229 2035 c-61 -19 -124 -87 -140 -149 -9 -35 -16 -46 -31 -46 -28
0 -89 -34 -120 -67 -112 -117 -53 -320 105 -364 27 -7 37 -16 42 -38 20 -92
119 -171 214 -171 98 0 201 79 217 166 5 26 12 36 33 41 155 37 225 214 134
345 -30 43 -63 67 -116 83 -32 9 -42 18 -52 47 -44 130 -162 193 -286 153z
m113 -155 c21 -16 26 -30 30 -79 6 -79 25 -101 87 -101 82 0 129 -43 110 -100
-12 -33 -46 -50 -103 -50 -67 0 -87 -22 -95 -104 -8 -74 -24 -96 -70 -96 -44
0 -71 36 -71 95 0 77 -25 105 -94 105 -68 0 -106 26 -106 74 0 48 29 69 101
74 75 6 99 30 99 104 0 39 5 54 25 73 29 30 54 32 87 5z"/>
<path d="M4305 2034 c-141 -52 -190 -231 -94 -347 84 -102 239 -107 331 -10
157 165 -23 435 -237 357z m119 -155 c53 -42 23 -122 -46 -122 -62 0 -89 73
-43 118 30 30 54 31 89 4z"/>
<path d="M3879 1727 c-52 -28 -104 -99 -114 -157 -22 -132 90 -260 226 -260
50 0 132 42 164 84 86 113 51 272 -76 336 -55 28 -143 27 -200 -3z m154 -144
c41 -46 10 -123 -48 -123 -30 0 -75 41 -75 68 0 11 9 31 21 46 24 31 77 36
102 9z"/>
<path d="M3102 1439 c-129 -64 -130 -254 -2 -319 33 -17 59 -20 172 -20 151 0
180 9 232 73 39 49 47 126 18 183 -43 85 -90 104 -254 104 -106 0 -129 -3
-166 -21z m283 -159 l0 -25 -111 -3 c-96 -2 -112 0 -118 14 -14 36 11 45 123
42 106 -3 106 -3 106 -28z"/>
</g>
</svg>
