<?xml version="1.0" standalone="no"?>
<!DOCTYPE svg PUBLIC "-//W3C//DTD SVG 20010904//EN"
 "http://www.w3.org/TR/2001/REC-SVG-20010904/DTD/svg10.dtd">
<svg version="1.0" xmlns="http://www.w3.org/2000/svg"
 width="512.000000pt" height="512.000000pt" viewBox="0 0 512.000000 512.000000"
 preserveAspectRatio="xMidYMid meet">

<g transform="translate(0.000000,512.000000) scale(0.100000,-0.100000)"
fill="#000000" stroke="none">
<path d="M1380 4530 c-635 -324 -1163 -599 -1172 -611 -17 -20 -18 -100 -18
-1358 0 -1166 2 -1339 15 -1358 8 -12 304 -168 687 -363 370 -189 893 -455
1162 -592 381 -195 495 -249 515 -245 14 3 193 91 396 195 312 159 371 193
379 215 14 38 -3 79 -38 96 -27 13 -34 11 -109 -25 l-79 -39 -195 100 c-174
89 -192 101 -176 113 10 7 104 57 209 109 l190 96 190 -98 c104 -54 190 -99
192 -100 2 -1 -11 -16 -28 -33 -46 -46 -38 -98 20 -122 29 -12 43 -6 377 164
893 451 1008 512 1020 537 19 37 19 2646 0 2692 -13 30 -100 76 -1168 620
-635 324 -1167 590 -1184 593 -24 3 -251 -109 -1185 -586z m1100 -310 l0 -700
-45 35 c-76 58 -180 79 -270 54 -84 -23 -130 -64 -256 -231 l-121 -159 -119
113 c-168 159 -203 186 -266 204 -99 29 -216 -2 -286 -74 -66 -69 -387 -477
-394 -500 -13 -53 42 -105 93 -86 16 5 101 103 222 254 174 216 202 247 239
259 81 29 92 21 434 -305 170 -163 321 -302 335 -309 31 -16 79 -3 94 25 26
49 14 69 -116 194 l-126 121 97 130 c119 159 151 193 192 211 76 33 137 7 228
-94 l65 -73 0 -417 0 -417 -1061 -540 c-583 -297 -1064 -541 -1069 -543 -6 -2
-10 162 -10 441 l0 445 170 212 c171 214 184 236 160 280 -14 27 -62 41 -91
26 -13 -6 -72 -71 -132 -145 l-107 -133 2 667 3 666 115 60 c151 78 2014 1028
2018 1029 1 0 2 -315 2 -700z m1235 152 l1060 -541 2 -803 3 -803 -53 55 c-28
31 -93 99 -142 153 -74 80 -95 97 -119 97 -38 0 -76 -35 -76 -71 0 -32 4 -37
223 -278 l167 -184 0 -313 c0 -173 -3 -314 -7 -314 -3 0 -142 69 -307 154
-166 84 -474 242 -686 349 -212 108 -556 284 -765 390 l-380 194 -3 327 c-1
179 1 326 5 325 5 0 100 -104 213 -230 113 -126 215 -232 226 -235 37 -9 66 0
87 28 29 39 18 63 -75 168 -46 51 -83 98 -83 105 0 7 70 99 155 204 167 206
197 231 279 231 23 0 59 -9 81 -20 26 -13 147 -139 370 -384 223 -245 339
-365 355 -368 53 -11 105 46 86 94 -9 24 -609 688 -678 749 -106 96 -279 105
-406 21 -22 -15 -109 -112 -194 -217 -86 -104 -159 -190 -162 -190 -4 0 -64
63 -134 140 l-126 140 -1 789 c0 627 3 787 13 783 6 -3 489 -248 1072 -545z
m-815 -2222 c0 -3 -77 -44 -171 -93 l-171 -87 -169 87 c-93 49 -169 90 -169
93 0 3 75 43 168 90 l167 85 173 -85 c94 -46 172 -87 172 -90z m-678 -176
l172 -86 -116 -61 c-64 -34 -166 -87 -227 -117 l-111 -54 -162 83 c-90 46
-167 87 -172 92 -7 6 414 227 437 228 4 1 85 -38 179 -85z m1080 -26 l219
-111 -64 -36 c-36 -20 -115 -61 -176 -91 l-111 -54 -212 108 c-117 60 -217
112 -221 116 -9 8 307 179 332 179 7 1 112 -49 233 -111z m-521 -260 c120 -62
219 -115 219 -118 0 -6 -415 -222 -436 -228 -12 -3 -444 217 -444 227 0 5 427
230 438 231 2 0 102 -51 223 -112z m-1180 -25 c93 -49 169 -90 169 -93 0 -3
-93 -53 -208 -112 l-207 -107 -168 88 c-93 48 -169 92 -169 96 0 7 393 212
410 214 2 1 80 -38 173 -86z m2207 28 c64 -33 159 -82 210 -109 l94 -49 -175
-91 -175 -90 -206 105 c-113 58 -206 109 -206 112 0 6 326 180 338 181 1 0 55
-27 120 -59z m-1635 -325 l219 -113 -94 -50 c-134 -72 -316 -163 -327 -163 -5
0 -109 51 -231 114 l-221 113 203 105 c112 58 210 106 218 106 8 1 113 -50
233 -112z m1206 13 c108 -55 199 -104 204 -108 7 -7 -396 -220 -432 -229 -13
-4 -420 198 -421 208 0 8 422 227 439 229 8 0 102 -44 210 -100z m-2360 -22
l174 -89 -203 -104 -202 -105 -167 87 c-91 47 -170 90 -175 94 -8 8 381 212
394 207 3 -1 83 -42 179 -90z m3465 -11 l200 -104 -150 -75 c-82 -41 -162 -82
-179 -91 -29 -15 -31 -14 -227 87 -108 56 -195 104 -192 106 6 7 338 180 344
180 3 0 95 -46 204 -103z m-2903 -278 c120 -62 219 -115 219 -119 0 -3 -87
-50 -194 -104 l-193 -100 -50 23 c-27 13 -129 65 -227 116 l-178 93 193 101
c107 56 198 101 202 101 5 1 107 -50 228 -111z m2388 9 l194 -99 -222 -114
c-122 -63 -228 -114 -235 -114 -16 0 -386 190 -386 199 0 9 433 231 445 228 6
-1 97 -46 204 -100z m-999 -127 c0 -3 -93 -53 -207 -111 l-208 -106 -202 104
c-112 58 -203 108 -203 112 0 4 91 54 203 112 l202 106 207 -106 c114 -58 208
-108 208 -111z m-791 -191 c108 -56 199 -104 203 -108 4 -3 -81 -51 -188 -106
l-194 -100 -205 103 c-113 57 -205 106 -205 111 0 9 358 198 379 200 8 0 102
-45 210 -100z m572 -295 c104 -53 189 -100 189 -103 0 -3 -85 -50 -189 -104
l-190 -98 -183 92 c-101 50 -189 96 -196 102 -9 7 35 35 175 108 103 54 192
98 197 98 4 1 93 -42 197 -95z"/>
<path d="M3205 4287 c-93 -31 -150 -81 -188 -166 -28 -64 -21 -181 16 -244 94
-159 313 -191 440 -63 62 62 82 110 82 201 0 70 -4 87 -29 133 -64 114 -207
176 -321 139z m112 -148 c65 -24 104 -92 89 -153 -10 -41 -55 -85 -97 -96 -33
-9 -47 -8 -83 9 -111 49 -98 214 19 244 33 8 42 7 72 -4z"/>
</g>
</svg>
