<?xml version="1.0" standalone="no"?>
<!DOCTYPE svg PUBLIC "-//W3C//DTD SVG 20010904//EN"
 "http://www.w3.org/TR/2001/REC-SVG-20010904/DTD/svg10.dtd">
<svg version="1.0" xmlns="http://www.w3.org/2000/svg"
 width="512.000000pt" height="512.000000pt" viewBox="0 0 512.000000 512.000000"
 preserveAspectRatio="xMidYMid meet">

<g transform="translate(0.000000,512.000000) scale(0.100000,-0.100000)"
fill="#000000" stroke="none">
<path d="M1435 5107 c-81 -27 -114 -54 -315 -253 l-205 -203 -114 107 -115
107 -324 0 -324 0 -19 -24 c-25 -30 -24 -62 2 -95 l20 -26 291 0 290 0 93 -87
93 -88 -132 -135 c-157 -161 -177 -196 -184 -320 -6 -123 16 -175 120 -286
l81 -85 -60 -62 c-68 -69 -79 -93 -62 -130 14 -30 234 -179 293 -197 56 -18
144 -8 207 22 l53 27 38 -35 c100 -90 193 -72 316 59 103 110 109 199 21 293
-28 29 -29 31 -11 47 17 16 20 15 48 -14 41 -44 76 -59 132 -59 61 0 116 33
191 116 102 111 108 189 23 277 -34 35 -35 38 -19 54 16 16 18 16 44 -8 67
-60 112 -74 180 -57 75 18 212 160 228 235 10 47 -12 111 -54 155 l-37 40 30
60 c38 76 40 158 8 231 -24 54 -145 235 -170 255 -36 28 -71 15 -141 -53 l-67
-64 -70 70 c-91 92 -167 131 -267 135 -42 2 -88 -2 -112 -9z m179 -157 c23
-11 69 -48 103 -82 l63 -63 -490 -490 -490 -490 -61 60 c-83 82 -102 122 -97
201 3 47 10 71 31 100 14 22 185 197 379 391 370 369 399 392 482 393 22 0 58
-9 80 -20z m467 -161 c22 -33 45 -75 50 -92 20 -72 24 -68 -563 -653 -304
-304 -563 -557 -575 -563 -42 -21 -87 -13 -154 30 -35 23 -68 45 -74 50 -6 6
227 246 630 649 352 352 641 640 642 640 1 0 21 -27 44 -61z m69 -444 l24 -26
-65 -65 -65 -65 -27 21 c-15 12 -27 25 -27 29 0 9 122 131 131 131 3 0 16 -11
29 -25z m-380 -380 l24 -25 -59 -60 c-33 -33 -64 -60 -69 -60 -5 0 -20 10 -33
22 l-24 22 63 63 c34 35 65 63 68 63 4 0 17 -11 30 -25z m-360 -399 c0 -13
-111 -126 -124 -126 -5 0 -20 10 -33 22 l-24 22 68 68 67 68 23 -22 c13 -12
23 -26 23 -32z"/>
<path d="M2735 4724 c-43 -22 -64 -44 -86 -86 -19 -37 -19 -66 -17 -782 l3
-744 31 -39 c63 -79 -38 -73 1220 -71 l1121 3 37 29 c79 60 76 21 76 834 0
628 -2 727 -15 759 -20 48 -41 71 -87 94 -33 17 -61 19 -262 19 l-225 0 -20
-26 c-12 -15 -21 -33 -21 -40 0 -22 22 -63 39 -71 9 -4 111 -10 226 -13 l210
-5 0 -715 0 -715 -1090 0 -1090 0 0 715 0 715 758 5 759 5 19 24 c26 32 24 73
-4 99 l-23 22 -765 0 c-673 0 -768 -2 -794 -16z"/>
<path d="M2952 4447 c-29 -31 -28 -72 3 -102 23 -24 31 -25 133 -25 95 0 113
3 136 21 34 27 36 77 3 107 -21 20 -34 22 -138 22 -108 0 -117 -2 -137 -23z"/>
<path d="M2973 4190 c-45 -19 -57 -86 -23 -120 18 -18 33 -20 140 -20 107 0
122 2 140 20 25 25 26 71 1 101 -18 22 -27 24 -128 26 -59 2 -118 -2 -130 -7z"/>
<path d="M4509 4189 c-18 -7 -37 -30 -59 -72 -18 -34 -53 -99 -77 -145 l-45
-82 -37 42 c-32 35 -44 42 -76 42 -55 0 -69 -24 -90 -153 -10 -61 -22 -111
-25 -111 -3 0 -48 93 -100 206 -52 114 -103 212 -114 220 -32 22 -69 17 -98
-13 -13 -16 -55 -67 -92 -115 l-68 -88 -99 0 c-112 0 -131 -6 -148 -49 -10
-24 -10 -34 3 -59 8 -16 23 -32 31 -36 9 -3 74 -6 144 -6 147 0 147 0 217 95
26 36 51 62 54 58 4 -5 57 -120 120 -258 62 -137 122 -260 133 -272 26 -29 77
-31 102 -3 17 19 34 90 65 278 l12 74 27 -26 c26 -25 62 -33 95 -20 9 3 35 42
58 86 42 78 43 79 50 49 13 -50 40 -61 149 -61 82 0 100 3 123 21 19 15 26 30
26 54 0 48 -37 75 -105 75 l-52 0 -12 113 c-11 104 -28 157 -50 157 -5 0 -15
2 -23 4 -7 3 -25 0 -39 -5z"/>
<path d="M2956 3899 c-34 -27 -35 -71 -1 -104 23 -24 31 -25 133 -25 95 0 113
3 136 21 34 27 36 77 3 107 -21 20 -34 22 -134 22 -96 0 -114 -3 -137 -21z"/>
<path d="M2974 3636 c-48 -21 -60 -80 -24 -116 18 -18 33 -20 140 -20 107 0
122 2 140 20 38 38 22 100 -31 119 -44 15 -187 13 -225 -3z"/>
<path d="M369 2647 c-24 -13 -57 -43 -74 -66 -26 -38 -30 -53 -33 -126 l-4
-83 -36 -7 c-52 -10 -91 -32 -140 -78 -65 -64 -82 -120 -82 -278 0 -72 4 -139
10 -149 16 -30 66 -40 196 -40 l124 0 0 -62 c0 -119 75 -221 184 -253 45 -13
98 -15 296 -13 240 3 242 3 261 27 26 31 24 73 -4 99 -21 20 -33 21 -275 24
l-254 3 -29 33 c-25 27 -29 41 -29 87 l0 55 2080 0 2080 0 0 -55 c0 -46 -4
-60 -29 -87 l-29 -33 -1651 -3 -1650 -2 -20 -26 c-24 -30 -26 -43 -10 -77 20
-44 43 -47 340 -47 l280 0 152 -96 c84 -53 153 -98 155 -99 2 -1 -75 -31 -170
-67 -139 -51 -175 -69 -185 -89 -8 -15 -13 -68 -13 -141 l0 -117 -348 -3 -349
-3 -41 -29 c-67 -46 -82 -90 -82 -239 l0 -126 -29 -15 c-113 -59 -165 -179
-129 -300 16 -55 99 -138 154 -154 163 -48 314 65 314 232 0 37 -8 77 -19 101
-19 43 -85 109 -120 120 -20 6 -21 13 -21 124 0 78 4 121 12 129 17 17 2649
17 2666 0 8 -8 12 -51 12 -128 l0 -115 -31 -14 c-54 -24 -108 -88 -125 -149
-34 -116 14 -228 121 -285 56 -30 164 -30 222 1 91 48 146 160 125 259 -15 70
-60 134 -116 164 l-46 24 0 125 c0 136 -13 183 -61 227 -56 51 -73 53 -452 53
l-355 0 -295 187 c-193 122 -292 190 -283 195 7 4 147 57 310 118 l297 110
708 0 c791 0 776 -1 853 68 57 51 88 121 88 200 l0 62 124 0 c128 0 170 8 192
38 20 26 19 265 -2 325 -19 57 -83 131 -138 160 l-41 22 -1297 3 c-1289 2
-1298 2 -1318 -18 -30 -30 -27 -83 6 -109 27 -21 27 -21 1293 -21 1238 0 1267
-1 1298 -20 47 -28 63 -67 63 -155 l0 -75 -2410 0 -2410 0 0 75 c0 88 16 127
63 155 31 19 57 20 944 20 656 0 919 3 937 11 51 23 55 103 7 128 -13 7 -191
11 -535 11 l-516 0 0 75 c0 110 -37 174 -122 210 -30 12 -83 15 -276 15 -231
0 -240 -1 -283 -23z m512 -137 c16 -9 19 -22 19 -75 l0 -65 -245 0 -245 0 0
59 c0 93 -5 91 241 91 126 0 218 -4 230 -10z m1650 -1086 l-174 -65 -98 62
c-55 34 -99 64 -99 66 0 1 123 3 273 2 l272 0 -174 -65z m50 -385 c132 -83
239 -153 239 -155 0 -2 -194 -4 -430 -4 l-431 0 3 86 3 86 180 68 c99 38 184
69 189 69 5 1 116 -67 247 -150z m-1453 -735 c34 -39 30 -95 -9 -128 -41 -35
-83 -34 -120 3 -48 49 -37 120 24 147 41 17 76 10 105 -22z m2845 -5 c30 -33
34 -57 12 -98 -31 -61 -121 -65 -156 -8 -25 41 -24 68 2 101 42 54 95 56 142
5z"/>
</g>
</svg>
