<?xml version="1.0" standalone="no"?>
<!DOCTYPE svg PUBLIC "-//W3C//DTD SVG 20010904//EN"
 "http://www.w3.org/TR/2001/REC-SVG-20010904/DTD/svg10.dtd">
<svg version="1.0" xmlns="http://www.w3.org/2000/svg"
 width="512.000000pt" height="512.000000pt" viewBox="0 0 512.000000 512.000000"
 preserveAspectRatio="xMidYMid meet">

<g transform="translate(0.000000,512.000000) scale(0.100000,-0.100000)"
fill="#000000" stroke="none">
<path d="M3535 5026 c-42 -18 -83 -69 -91 -111 l-6 -35 -1387 0 c-1526 0
-1441 3 -1562 -61 -70 -38 -157 -126 -193 -197 -56 -111 -56 -109 -56 -833 l0
-667 -35 -6 c-47 -9 -102 -59 -115 -104 -8 -25 -10 -329 -8 -954 3 -908 3
-917 24 -944 11 -15 33 -37 48 -48 27 -20 40 -21 544 -24 345 -2 529 0 554 8
45 13 95 68 104 115 l6 35 359 0 359 0 0 -88 0 -88 -140 -13 c-429 -38 -695
-129 -731 -249 -6 -23 -9 -108 -7 -223 3 -185 3 -186 31 -222 37 -48 163 -110
290 -142 454 -114 1432 -126 1967 -24 217 42 371 113 412 189 16 30 18 60 18
218 0 204 -6 230 -61 277 -98 82 -344 146 -681 177 l-138 12 0 88 0 88 708 0
c778 0 766 -1 883 61 70 38 157 126 193 197 54 106 56 131 56 593 l0 427 35 6
c47 9 102 59 115 104 8 25 10 401 8 1194 -3 1150 -3 1157 -24 1184 -11 15 -33
37 -48 48 -27 21 -38 21 -714 23 -556 2 -693 0 -717 -11z m1345 -1266 l0
-1120 -640 0 -640 0 0 1120 0 1120 640 0 640 0 0 -1120z m-1440 880 l0 -80
-1389 -2 c-1386 -3 -1390 -3 -1417 -24 -15 -11 -37 -33 -48 -48 -21 -27 -21
-39 -24 -697 l-2 -669 -81 0 -80 0 3 683 3 682 25 50 c43 86 125 154 215 176
17 4 652 7 1413 8 l1382 1 0 -80z m0 -547 l0 -308 -98 147 -97 148 -685 0
-685 -1 -187 -280 -186 -281 526 -704 c290 -387 529 -703 532 -703 3 0 201
261 440 581 l435 581 5 -346 c5 -329 6 -347 26 -373 11 -15 33 -37 48 -48 27
-20 41 -21 457 -24 l429 -3 0 -239 0 -240 -1520 0 -1519 0 -3 509 c-3 497 -4
510 -24 537 -11 15 -33 37 -48 48 -26 20 -43 21 -297 24 l-269 3 0 639 0 640
1360 0 1360 0 0 -307z m-1297 -333 l-106 -160 -144 0 -143 0 107 160 106 160
144 0 143 0 -107 -160z m640 0 l107 -160 -330 0 -330 0 107 160 106 160 117 0
117 0 106 -160z m480 0 l107 -160 -143 0 -144 0 -106 160 -107 160 143 0 144
0 106 -160z m-1110 -661 c70 -188 126 -343 125 -344 -2 -1 -119 152 -261 341
l-257 344 133 0 132 0 128 -341z m767 334 c0 -13 -355 -953 -360 -953 -5 0
-360 940 -360 953 0 4 162 7 360 7 198 0 360 -3 360 -7z m183 -337 c-142 -189
-259 -342 -261 -341 -1 1 55 156 125 344 l128 341 132 0 133 0 -257 -344z
m-1903 -1016 l0 -880 -480 0 -480 0 0 880 0 880 480 0 480 0 0 -880z m3518
-42 l-3 -443 -34 -63 c-38 -70 -69 -100 -145 -140 l-51 -27 -624 -3 c-595 -3
-623 -2 -616 15 30 71 35 115 35 284 l0 179 589 2 c578 3 590 3 617 24 15 11
37 33 48 48 20 26 21 43 24 297 l3 269 80 0 80 0 -3 -442z m-2878 -376 c0
-169 5 -214 35 -284 7 -17 -9 -18 -254 -18 l-261 0 0 240 0 240 240 0 240 0 0
-178z m1278 -11 c-3 -207 -6 -216 -72 -265 -27 -21 -38 -21 -486 -21 -448 0
-459 0 -486 21 -66 49 -69 58 -72 265 l-3 189 561 0 561 0 -3 -189z m-238
-586 c0 -131 -1 -137 -25 -160 l-24 -25 -271 0 -271 0 -24 25 c-24 23 -25 29
-25 160 l0 135 320 0 320 0 0 -135z m-765 -225 c10 -30 89 -95 133 -108 54
-16 570 -16 624 0 44 13 124 78 134 110 6 20 10 21 108 14 271 -17 636 -99
623 -140 -11 -36 -319 -103 -607 -133 -249 -25 -891 -25 -1140 0 -288 30 -596
97 -607 133 -14 43 428 138 664 143 53 1 63 -2 68 -19z m-502 -365 c585 -117
1696 -91 2081 49 l66 24 0 -73 0 -73 -47 -22 c-102 -48 -350 -95 -638 -122
-186 -17 -844 -17 -1030 0 -288 27 -536 74 -638 122 l-47 22 0 73 0 73 66 -24
c36 -13 120 -35 187 -49z"/>
<path d="M3760 4640 l0 -80 80 0 80 0 0 -80 0 -80 -80 0 -80 0 0 -80 0 -80 80
0 80 0 0 -80 0 -80 -80 0 -80 0 0 -80 0 -80 480 0 480 0 0 80 0 80 -80 0 -80
0 0 80 0 80 80 0 80 0 0 80 0 80 -80 0 -80 0 0 80 0 80 80 0 80 0 0 80 0 80
-480 0 -480 0 0 -80z m640 -160 l0 -80 -160 0 -160 0 0 80 0 80 160 0 160 0 0
-80z m0 -320 l0 -80 -160 0 -160 0 0 80 0 80 160 0 160 0 0 -80z"/>
<path d="M3760 3440 l0 -320 480 0 480 0 0 320 0 320 -480 0 -480 0 0 -320z
m800 0 l0 -160 -320 0 -320 0 0 160 0 160 320 0 320 0 0 -160z"/>
<path d="M3760 2880 l0 -80 80 0 80 0 0 80 0 80 -80 0 -80 0 0 -80z"/>
<path d="M4080 2880 l0 -80 320 0 320 0 0 80 0 80 -320 0 -320 0 0 -80z"/>
<path d="M960 4160 l0 -80 80 0 80 0 0 80 0 80 -80 0 -80 0 0 -80z"/>
<path d="M1280 4160 l0 -80 80 0 80 0 0 80 0 80 -80 0 -80 0 0 -80z"/>
<path d="M3280 2240 l0 -80 480 0 480 0 0 80 0 80 -480 0 -480 0 0 -80z"/>
<path d="M400 2560 l0 -240 320 0 320 0 0 240 0 240 -320 0 -320 0 0 -240z
m480 0 l0 -80 -160 0 -160 0 0 80 0 80 160 0 160 0 0 -80z"/>
<path d="M400 2080 l0 -80 320 0 320 0 0 80 0 80 -320 0 -320 0 0 -80z"/>
<path d="M400 1760 l0 -80 320 0 320 0 0 80 0 80 -320 0 -320 0 0 -80z"/>
<path d="M400 1440 l0 -80 320 0 320 0 0 80 0 80 -320 0 -320 0 0 -80z"/>
<path d="M2160 1600 l0 -80 400 0 400 0 0 80 0 80 -400 0 -400 0 0 -80z"/>
</g>
</svg>
